<svg width="12" height="16" viewBox="0 0 12 16" fill="none" xmlns="http://www.w3.org/2000/svg">
<path fill-rule="evenodd" clip-rule="evenodd" d="M3.04043 0.30304C3.11922 0.119198 3.29999 0 3.5 0H8.5C8.70001 0 8.88078 0.119198 8.95957 0.30304L11.9596 7.30304C12.0189 7.44154 12.0127 7.59942 11.9425 7.73277C11.8724 7.86613 11.7449 7.96092 11.5972 7.99047L11.5953 7.99083C11.4456 8.02033 11.2952 8.04624 11.1447 8.07132C10.8576 8.11917 10.4446 8.18269 9.93702 8.24614C9.03479 8.35892 7.82981 8.47271 6.5 8.49628V13.5C6.5 13.7761 6.27614 14 6 14C5.72386 14 5.5 13.7755 5.5 13.4994V8.49553C4.17019 8.47197 2.96521 8.35892 2.06298 8.24614C1.55543 8.18269 1.1424 8.11917 0.855301 8.07132C0.704805 8.04624 0.554361 8.02033 0.404656 7.99083L0.401942 7.99029C0.254187 7.96074 0.127639 7.86613 0.0574891 7.73277C-0.0126603 7.59942 -0.0189284 7.44154 0.0404277 7.30304L3.04043 0.30304ZM1.2087 7.11566C1.46644 7.15657 1.79767 7.20519 2.18702 7.25386C3.17294 7.3771 4.52638 7.5 6 7.5C7.47362 7.5 8.82706 7.3771 9.81298 7.25386C10.2023 7.20519 10.5336 7.15657 10.7913 7.11566L8.1703 1H3.8297L1.2087 7.11566Z" fill="white"/>
<path d="M4.49328 12.5742C4.53841 12.8467 4.35414 13.1041 4.08171 13.1492C3.37026 13.2671 2.80258 13.4439 2.42743 13.6415C2.23962 13.7405 2.1222 13.8332 2.05719 13.9069C2.02598 13.9422 2.01158 13.9679 2.00527 13.9824L2.00373 13.9861C2.00176 13.9911 2.00049 13.9963 2.00049 13.9963C2.00003 13.9985 2 14 2 14C2 14 1.99995 14.0025 2.00153 14.0077C2.00323 14.0133 2.00741 14.0243 2.01754 14.0408C2.03876 14.0753 2.08204 14.1273 2.16312 14.1912C2.32821 14.3213 2.59808 14.4603 2.97613 14.5864C3.72701 14.8367 4.79615 15 6 15C7.20386 15 8.27299 14.8367 9.02387 14.5864C9.40192 14.4603 9.67179 14.3213 9.83688 14.1912C9.91796 14.1273 9.96124 14.0753 9.98246 14.0408C9.99259 14.0243 9.99677 14.0133 9.99847 14.0077C10 14.0026 10 14.0001 10 14.0001C10 14.0001 9.99997 13.9985 9.99951 13.9963C9.99902 13.9941 9.99781 13.9895 9.99473 13.9824C9.98842 13.9679 9.97402 13.9422 9.94281 13.9069C9.8778 13.8332 9.76038 13.7405 9.57257 13.6415C9.19742 13.4439 8.62974 13.2671 7.91829 13.1492C7.64586 13.1041 7.46159 12.8467 7.50672 12.5742C7.55185 12.3018 7.80928 12.1176 8.08171 12.1627C8.85198 12.2903 9.5343 12.4911 10.0387 12.7568C10.5009 13.0003 11 13.4014 11 14C11 14.426 10.7406 14.7522 10.4559 14.9766C10.1655 15.2054 9.77638 15.3896 9.34009 15.535C8.46229 15.8276 7.28143 16 6 16C4.71857 16 3.53771 15.8276 2.65991 15.535C2.22362 15.3896 1.83448 15.2054 1.54415 14.9766C1.25945 14.7522 1 14.426 1 14C1 13.4014 1.49912 13.0003 1.96128 12.7568C2.46571 12.4911 3.14802 12.2903 3.91829 12.1627C4.19072 12.1176 4.44815 12.3018 4.49328 12.5742Z" fill="white"/>
</svg>
